<?xml version="1.0" standalone="no"?>
<!DOCTYPE svg PUBLIC "-//W3C//DTD SVG 20010904//EN"
 "http://www.w3.org/TR/2001/REC-SVG-20010904/DTD/svg10.dtd">
<svg version="1.0" xmlns="http://www.w3.org/2000/svg"
 width="1377.000000pt" height="388.000000pt" viewBox="0 0 1377.000000 388.000000"
 preserveAspectRatio="xMidYMid meet">
<g transform="translate(0.000000,388.000000) scale(0.100000,-0.100000)"
fill="#000000" stroke="none">
<path fill="#EE7820" d="M620 3453 c-195 -112 -360 -207 -367 -211 -6 -4 143 -98 353 -221
201 -117 367 -211 370 -209 2 3 3 194 2 425 l-3 420 -355 -204z"/>
<path fill="#EE7820" d="M1200 3286 l0 -256 318 0 c350 0 394 -6 504 -61 87 -44 181 -137 221
-218 30 -61 32 -73 32 -171 0 -94 -3 -111 -27 -160 -15 -30 -47 -78 -72 -106
l-45 -51 150 -222 c83 -121 154 -221 158 -221 17 0 133 92 192 151 120 123
201 263 240 418 29 115 23 328 -11 436 -48 150 -123 268 -246 385 -151 144
-323 239 -534 296 -105 28 -106 28 -492 32 l-388 4 0 -256z"/>
<path fill="#EE7820" d="M290 1425 l0 -1185 305 0 305 0 0 690 0 690 334 0 334 0 427 -690
427 -690 345 0 344 0 -160 238 c-89 130 -378 556 -644 946 l-482 709 -462 -2
-463 -2 0 240 0 241 -305 0 -305 0 0 -1185z"/>
<path d="M6685 2319 c-358 -23 -655 -229 -828 -574 -81 -162 -112 -322 -104
-533 8 -231 74 -422 208 -603 146 -197 308 -309 537 -371 118 -31 412 -37 542
-10 300 62 541 244 694 523 l37 67 -106 56 c-58 31 -111 56 -118 56 -7 0 -39
-41 -72 -91 -136 -204 -298 -317 -525 -365 -97 -20 -271 -18 -362 5 -309 79
-531 359 -561 709 l-4 52 903 0 904 0 0 69 c0 184 -69 413 -169 560 -224 329
-545 477 -976 450z m278 -265 c150 -33 333 -141 418 -247 47 -58 120 -204 143
-284 l15 -53 -744 0 -744 0 9 28 c87 287 278 485 532 552 94 24 270 26 371 4z"/>
<path d="M8950 2320 c-152 -18 -290 -107 -418 -268 l-42 -54 0 141 0 141 -135
0 -135 0 0 -1010 0 -1010 134 0 134 0 5 558 c3 324 9 597 16 652 34 280 145
481 313 565 58 29 82 35 133 35 34 0 82 -7 106 -15 23 -9 46 -12 49 -8 20 22
130 194 130 202 0 21 -120 66 -195 73 -22 2 -65 1 -95 -2z"/>
<path d="M12385 2319 c-358 -23 -655 -229 -828 -574 -81 -162 -112 -322 -104
-533 8 -231 74 -422 208 -603 146 -197 308 -309 537 -371 118 -31 412 -37 542
-10 300 62 541 244 694 523 l37 67 -106 56 c-58 31 -111 56 -118 56 -7 0 -39
-41 -72 -91 -136 -204 -298 -317 -525 -365 -97 -20 -271 -18 -362 5 -309 79
-531 359 -561 709 l-4 52 903 0 904 0 0 69 c0 184 -69 413 -169 560 -224 329
-545 477 -976 450z m278 -265 c150 -33 333 -141 418 -247 47 -58 120 -204 143
-284 l15 -53 -744 0 -744 0 9 28 c87 287 278 485 532 552 94 24 270 26 371 4z"/>
<path d="M4080 2165 l0 -115 515 -2 514 -3 -555 -870 c-305 -478 -562 -880
-570 -892 l-14 -23 780 0 780 0 0 110 0 110 -550 0 c-302 0 -550 2 -550 4 0 2
257 405 570 895 314 490 570 893 570 896 0 3 -335 5 -745 5 l-745 0 0 -115z"/>
<path d="M9261 2273 c0 -5 208 -458 462 -1008 l462 -1000 33 0 33 0 460 1003
c252 551 459 1004 459 1007 0 3 -65 5 -144 5 l-144 0 -328 -721 c-180 -396
-331 -722 -334 -724 -3 -2 -156 322 -340 721 l-334 724 -143 0 c-79 0 -143 -3
-142 -7z"/>
<path d="M3440 1210 l0 -950 140 0 140 0 0 950 0 950 -140 0 -140 0 0 -950z"/>
</g>
</svg>
